<svg width="60" height="60" viewBox="0 0 60 60" fill="none" xmlns="http://www.w3.org/2000/svg">
    <path d="M55 8.75H5V46.25H13.75V52.5L26.25 46.25H55V8.75Z" fill="#9D60F8" fill-opacity="0.9" />
    <path
        d="M55.9429 8.75C55.9429 8.22927 55.5207 7.80714 55 7.80714H5C4.47927 7.80714 4.05714 8.22927 4.05714 8.75V46.25C4.05714 46.7707 4.47927 47.1929 5 47.1929H12.8071V52.5C12.8071 52.8268 12.9763 53.1302 13.2543 53.302C13.5323 53.4738 13.8794 53.4895 14.1717 53.3433L26.4726 47.1929H55C55.5207 47.1929 55.9429 46.7707 55.9429 46.25V8.75Z"
        stroke="#9D60F8" stroke-opacity="0.9" stroke-width="1.88571" stroke-linecap="round" stroke-linejoin="round" />
    <path d="M38.75 20V21.25" stroke="white" stroke-width="5" stroke-linecap="round" stroke-linejoin="round" />
    <path d="M21.25 20V21.25" stroke="white" stroke-width="5" stroke-linecap="round" stroke-linejoin="round" />
    <path d="M38.75 31.25C38.75 31.25 36.25 36.25 30 36.25C23.75 36.25 21.25 31.25 21.25 31.25" stroke="white"
        stroke-width="5" stroke-linecap="round" stroke-linejoin="round" />
</svg>