<svg width="35" height="35" viewBox="0 0 35 35" fill="none" xmlns="http://www.w3.org/2000/svg">
    <path
        d="M21.1408 10.6264C23.0933 10.6264 24.6762 9.04352 24.6762 7.09102C24.6762 5.1385 23.0933 3.55566 21.1408 3.55566C19.1883 3.55566 17.6055 5.1385 17.6055 7.09102C17.6055 9.04352 19.1883 10.6264 21.1408 10.6264Z"
        fill="#9D60F8" stroke="#9D60F8" stroke-width="2.12121" stroke-miterlimit="2" />
    <path
        d="M29.6271 17.6975C30.7986 17.6975 31.7483 16.7478 31.7483 15.5763C31.7483 14.4047 30.7986 13.4551 29.6271 13.4551C28.4555 13.4551 27.5059 14.4047 27.5059 15.5763C27.5059 16.7478 28.4555 17.6975 29.6271 17.6975Z"
        fill="#9D60F8" fill-opacity="0.7" />
    <path d="M11.9497 17.6973L10.3446 25.6589C10.1962 26.5851 9.20626 27.1084 8.35777 26.7195L3.46484 24.768"
        stroke="#9D60F8" stroke-width="2.12121" stroke-miterlimit="2" stroke-linecap="round" stroke-linejoin="round" />
    <path
        d="M27.505 21.9397L17.4363 14.2114C16.8919 13.8084 16.1424 13.8508 15.6404 14.3033L12.2181 17.4357C11.8858 17.7397 11.9141 18.2629 12.2818 18.5316L19.0202 23.4599C19.5293 23.8347 19.7343 24.5064 19.508 25.1003L16.9838 31.8387"
        stroke="#9D60F8" stroke-width="2.12121" stroke-miterlimit="2" stroke-linecap="round" stroke-linejoin="round" />
</svg>