<svg width="35" height="35" viewBox="0 0 35 35" fill="none" xmlns="http://www.w3.org/2000/svg">
    <g clip-path="url(#clip0_442_7618)">
        <path d="M34.2109 0.45459H0.271484V34.394H34.2109V0.45459Z" fill="white" fill-opacity="0.01"/>
        <path
                d="M27.1399 3.28271H7.34188C6.56087 3.28271 5.92773 3.91585 5.92773 4.69686V30.1514C5.92773 30.9324 6.56087 31.5655 7.34188 31.5655H27.1399C27.9209 31.5655 28.554 30.9324 28.554 30.1514V4.69686C28.554 3.91585 27.9209 3.28271 27.1399 3.28271Z"
                stroke="#9D60F8" stroke-width="2.12121"/>
        <path d="M5.92773 11.4141H28.554" stroke="#9D60F8" stroke-width="2.12121" stroke-linecap="round"
              stroke-linejoin="round"/>
        <path
                d="M20.0684 8.93961C20.8494 8.93961 21.4826 8.30648 21.4826 7.52547C21.4826 6.74446 20.8494 6.11133 20.0684 6.11133C19.2874 6.11133 18.6543 6.74446 18.6543 7.52547C18.6543 8.30648 19.2874 8.93961 20.0684 8.93961Z"
                fill="#9D60F8"/>
        <path
                d="M24.3126 8.93961C25.0936 8.93961 25.7267 8.30648 25.7267 7.52547C25.7267 6.74446 25.0936 6.11133 24.3126 6.11133C23.5316 6.11133 22.8984 6.74446 22.8984 7.52547C22.8984 8.30648 23.5316 8.93961 24.3126 8.93961Z"
                fill="#9D60F8"/>
        <path
                d="M17.2405 26.6163C19.974 26.6163 22.19 24.4003 22.19 21.6668C22.19 18.9332 19.974 16.7173 17.2405 16.7173C14.507 16.7173 12.291 18.9332 12.291 21.6668C12.291 24.4003 14.507 26.6163 17.2405 26.6163Z"
                fill="#9D60F8" fill-opacity="0.7"/>
        <path
                d="M17.2405 27.1496C20.2686 27.1496 22.7233 24.6949 22.7233 21.6668C22.7233 18.6387 20.2686 16.184 17.2405 16.184C14.2124 16.184 11.7577 18.6387 11.7577 21.6668C11.7577 24.6949 14.2124 27.1496 17.2405 27.1496Z"
                stroke="#9D60F8" stroke-opacity="0.7" stroke-width="1.06667"/>
    </g>
    <defs>
        <clipPath id="clip0_442_7618">
            <rect width="33.9394" height="33.9394" fill="white" transform="translate(0.271484 0.45459)"/>
        </clipPath>
    </defs>
</svg>