<svg width="24" height="24" viewBox="0 0 24 24" fill="none" xmlns="http://www.w3.org/2000/svg">
    <path d="M24 0H0V24H24V0Z" fill="white" fill-opacity="0.01"/>
    <path fill-rule="evenodd" clip-rule="evenodd"
          d="M12 2C6.47715 2 2 6.47715 2 12C2 17.5229 6.47715 22 12 22C17.5229 22 22 17.5229 22 12C22 6.47715 17.5229 2 12 2ZM0 12C0 5.3726 5.3726 0 12 0C18.6274 0 24 5.3726 24 12C24 18.6274 18.6274 24 12 24C5.3726 24 0 18.6274 0 12Z"
          fill="#666666"/>
    <path fill-rule="evenodd" clip-rule="evenodd"
          d="M9.59064 22.7356C9.49394 22.6107 9.49394 21.4984 9.59064 19.3988C8.55474 19.4346 7.90024 19.3627 7.62714 19.1831C7.21754 18.9138 6.80744 18.0831 6.44359 17.4977C6.07974 16.9123 5.27214 16.8198 4.94604 16.6889C4.61993 16.558 4.53807 16.0246 5.84464 16.428C7.15124 16.8315 7.21494 17.9301 7.62714 18.187C8.03934 18.4439 9.02474 18.3315 9.47144 18.1257C9.91809 17.9199 9.88524 17.1537 9.96489 16.8501C10.0656 16.5668 9.71064 16.5039 9.70284 16.5016C9.26679 16.5016 6.97599 16.0034 6.34674 13.7851C5.71754 11.5668 6.52809 10.1168 6.96049 9.4935C7.24874 9.07795 7.22324 8.19235 6.88399 6.8366C8.11579 6.6792 9.06634 7.0669 9.73574 7.9998C9.73639 8.00515 10.6133 7.47835 11.9991 7.47835C13.385 7.47835 13.8767 7.90745 14.2561 7.9998C14.6355 8.09215 14.939 6.3668 17.2824 6.8366C16.7932 7.7982 16.3834 8.9998 16.6962 9.4935C17.0089 9.9872 18.2362 11.5571 17.4823 13.7851C16.9797 15.2704 15.9917 16.1759 14.5182 16.5016C14.3492 16.5555 14.2648 16.6425 14.2648 16.7625C14.2648 16.9426 14.4932 16.9622 14.8223 17.8056C15.0416 18.3679 15.0575 19.9738 14.8698 22.6233C14.3943 22.7443 14.0244 22.8256 13.7601 22.8671C13.2914 22.9408 12.7825 22.9821 12.2824 22.998C11.7824 23.014 11.6088 23.0122 10.9175 22.9478C10.4567 22.9049 10.0144 22.8342 9.59064 22.7356Z"
          fill="#666666"/>
</svg>